<svg width="283" height="371" viewBox="0 0 283 371" fill="none" xmlns="http://www.w3.org/2000/svg">
<path d="M210.294 0V118.346C209.846 118.316 209.384 118.316 208.922 118.316C161.033 118.316 163.805 188.846 208.922 188.846C209.384 188.846 209.846 188.846 210.294 188.801V220.491C210.025 220.506 209.727 220.58 209.459 220.506C202.841 218.547 201.351 218.547 196.879 220.031C159.617 240.801 170.08 292.311 210.294 292.727V370.229H185.73C83.2291 370.229 0 287.282 0 185.107C0 82.9326 83.2291 0 185.73 0H210.294Z" fill="#1A6C63"/>
<path d="M278.081 52.2371H260.389L243.77 80.0544V85.0393H278.081V52.2371Z" fill="#38A875"/>
<path d="M189.218 225.58C189.516 225.342 189.829 225.105 190.142 224.882H156.904C124.829 252.121 140.569 320.959 209.459 320.959H210.294V289.285C170.08 288.869 163.865 245.4 189.218 225.58Z" fill="#41C991"/>
<path d="M210.293 86.6712C210.025 86.6564 209.742 86.6564 209.459 86.6564C125.842 86.6564 116.989 197.569 186.595 217.464C187.459 217.717 188.338 217.954 189.218 218.162C195.388 219.69 202.125 220.506 209.459 220.506C209.742 220.506 210.025 220.506 210.293 220.491C302.674 219.705 302.674 87.4575 210.293 86.6712ZM210.293 188.801C209.846 188.846 209.384 188.846 208.922 188.846C163.805 188.846 161.033 118.316 208.922 118.316C209.384 118.316 209.846 118.316 210.293 118.346C256.275 119.651 253.92 187.436 210.293 188.801Z" fill="#41C991"/>
<path d="M210.293 86.6712V118.346C256.275 119.651 253.92 187.436 210.293 188.801V220.491C302.674 219.705 302.674 87.4575 210.293 86.6712Z" fill="#38A875"/>
<path d="M210.293 320.959V289.285C210.487 289.3 210.681 289.3 210.875 289.3C233.575 289.3 246.005 275.517 243.77 254.064H279.72C282.195 288.81 256.513 320.574 210.293 320.959Z" fill="#38A875"/>
</svg>
