<svg width="16" height="16" viewBox="0 0 16 16" fill="none" xmlns="http://www.w3.org/2000/svg">
<path d="M9.80014 3.80027L12.2002 6.20032M13.5046 4.88749C13.8219 4.57034 14.0001 4.14016 14.0002 3.69158C14.0002 3.243 13.8221 2.81277 13.5049 2.49554C13.1878 2.17831 12.7576 2.00006 12.309 2C11.8604 1.99994 11.4302 2.17809 11.113 2.49524L3.10519 10.5048C2.96587 10.6437 2.86285 10.8147 2.80518 11.0028L2.01256 13.6141C1.99705 13.666 1.99588 13.7211 2.00917 13.7736C2.02246 13.8261 2.04971 13.874 2.08804 13.9123C2.12637 13.9506 2.17434 13.9777 2.22686 13.9909C2.27938 14.0042 2.3345 14.0029 2.38637 13.9873L4.99823 13.1953C5.18613 13.1381 5.35714 13.0357 5.49624 12.8971L13.5046 4.88749Z" stroke="#9C9CA3" stroke-width="1.33333" stroke-linecap="round" stroke-linejoin="round"/>
</svg>
