<svg width="32" height="32" viewBox="0 0 32 32" fill="none" xmlns="http://www.w3.org/2000/svg">
<path d="M15.4737 25.9474C17.9863 25.9474 20.3959 24.9493 22.1726 23.1726C23.9493 21.3959 24.9474 18.9863 24.9474 16.4737H6C6 18.9863 6.99812 21.3959 8.77478 23.1726C10.5514 24.9493 12.9611 25.9474 15.4737 25.9474Z" stroke="#9C9CA3" stroke-width="2" stroke-linecap="round" stroke-linejoin="round"/>
<path d="M10.2105 25.9474H20.7368" stroke="#9C9CA3" stroke-width="2" stroke-linecap="round" stroke-linejoin="round"/>
<path d="M23.3684 16.4737L26 10.1579" stroke="#9C9CA3" stroke-width="2" stroke-linecap="round" stroke-linejoin="round"/>
<path d="M19.9474 7C20.2316 7.10526 20.7895 7.55789 20.7368 8.43158C20.6737 9.30526 19.7579 9.69474 19.6842 10.5579C19.6316 11.3789 20.0421 11.8632 20.4526 12.2632" stroke="#9C9CA3" stroke-width="2" stroke-linecap="round" stroke-linejoin="round"/>
<path d="M14.6842 7C14.9684 7.10526 15.5263 7.55789 15.4632 8.43158C15.4105 9.30526 14.4842 9.69474 14.4316 10.5579C14.3684 11.3789 14.7789 11.8632 15.1895 12.2632" stroke="#9C9CA3" stroke-width="2" stroke-linecap="round" stroke-linejoin="round"/>
<path d="M9.42105 7C9.70526 7.10526 10.2632 7.55789 10.2105 8.43158C10.1474 9.30526 9.23158 9.69474 9.15789 10.5579C9.10526 11.3789 9.51579 11.8632 9.93684 12.2632" stroke="#9C9CA3" stroke-width="2" stroke-linecap="round" stroke-linejoin="round"/>
</svg>
