<svg width="16" height="16" viewBox="0 0 16 16" fill="none" xmlns="http://www.w3.org/2000/svg">
<path d="M3.50157 8.99974C3.40698 9.00006 3.31424 8.97354 3.23412 8.92325C3.154 8.87296 3.0898 8.80097 3.04897 8.71564C3.00814 8.63032 2.99235 8.53515 3.00345 8.44121C3.01455 8.34727 3.05208 8.25841 3.11168 8.18495L8.06039 3.08628C8.09751 3.04343 8.14809 3.01448 8.20384 3.00417C8.25959 2.99386 8.31718 3.00281 8.36717 3.02955C8.41716 3.05629 8.45658 3.09922 8.47895 3.15132C8.50132 3.20341 8.50531 3.26156 8.49028 3.31622L7.53053 6.32544C7.50223 6.40118 7.49272 6.48266 7.50283 6.56288C7.51294 6.6431 7.54235 6.71967 7.58856 6.78603C7.63476 6.85239 7.69637 6.90654 7.7681 6.94386C7.83983 6.98117 7.91955 7.00052 8.0004 7.00026H11.4995C11.5941 6.99994 11.6868 7.02646 11.7669 7.07675C11.8471 7.12704 11.9113 7.19903 11.9521 7.28436C11.9929 7.36969 12.0087 7.46485 11.9976 7.55879C11.9865 7.65273 11.949 7.74159 11.8894 7.81505L6.94068 12.9137C6.90356 12.9566 6.85297 12.9855 6.79723 12.9958C6.74148 13.0061 6.68388 12.9972 6.63389 12.9705C6.5839 12.9437 6.54449 12.9008 6.52212 12.8487C6.49975 12.7966 6.49576 12.7384 6.51079 12.6838L7.47054 9.67456C7.49884 9.59882 7.50835 9.51734 7.49824 9.43712C7.48813 9.3569 7.45871 9.28033 7.41251 9.21397C7.36631 9.14762 7.3047 9.09346 7.23296 9.05614C7.16123 9.01883 7.08152 8.99948 7.00066 8.99974H3.50157Z" fill="#00BAB3" stroke="#00BAB3" stroke-linecap="round" stroke-linejoin="round"/>
</svg>
