<svg width="18" height="18" viewBox="0 0 18 18" fill="none" xmlns="http://www.w3.org/2000/svg">
<path fill-rule="evenodd" clip-rule="evenodd" d="M1.15646 7.02728C1.05334 7.24952 0.999941 7.49159 1 7.73659V15.3157C1 15.7624 1.17745 16.1908 1.49331 16.5067C1.80917 16.8226 2.23756 17 2.68426 17L6.05282 17V10.263C6.05282 10.0396 6.14154 9.82544 6.29947 9.66751C6.4574 9.50958 6.6716 9.42086 6.89494 9.42086H10.2635C10.4868 9.42086 10.701 9.50958 10.8589 9.66751C11.0169 9.82544 11.1056 10.0396 11.1056 10.263V17L14.4741 17C14.9207 17 15.3491 16.8226 15.665 16.5067C15.9809 16.1908 16.1583 15.7624 16.1583 15.3157V7.73659C16.1584 7.49159 16.105 7.24952 16.0019 7.02728C15.8987 6.80503 15.7484 6.60796 15.5612 6.44982L9.66634 1.39789C9.36235 1.14096 8.97718 1 8.57915 1C8.18113 1 7.79596 1.14096 7.49197 1.39789L1.59707 6.44982C1.40995 6.60796 1.25958 6.80503 1.15646 7.02728Z" fill="#00BAB3"/>
<path d="M1 7.73659H2L2 7.73635L1 7.73659ZM1.15646 7.02728L0.249351 6.60637L0.249351 6.60638L1.15646 7.02728ZM1.49331 16.5067L2.20041 15.7996L2.20041 15.7996L1.49331 16.5067ZM2.68426 17L2.68426 16H2.68426V17ZM6.05282 17L6.05281 18C6.31803 18 6.57238 17.8947 6.75992 17.7071C6.94746 17.5196 7.05282 17.2652 7.05282 17H6.05282ZM6.29947 9.66751L5.59236 8.9604L5.59236 8.96041L6.29947 9.66751ZM10.8589 9.66751L11.566 8.96041L11.566 8.9604L10.8589 9.66751ZM11.1056 17H10.1056C10.1056 17.2652 10.2109 17.5196 10.3985 17.7071C10.586 17.8947 10.8404 18 11.1056 18L11.1056 17ZM14.4741 17V16H14.474L14.4741 17ZM16.1583 7.73659L15.1583 7.73635V7.73659H16.1583ZM16.0019 7.02728L15.0947 7.44818L15.0947 7.44818L16.0019 7.02728ZM15.5612 6.44982L14.9105 7.20914L14.9157 7.21358L15.5612 6.44982ZM9.66634 1.39789L10.3171 0.63856L10.3118 0.634128L9.66634 1.39789ZM7.49197 1.39789L6.84645 0.63411L6.84124 0.638578L7.49197 1.39789ZM1.59707 6.44982L2.24259 7.21359L2.2478 7.20913L1.59707 6.44982ZM2 7.73635C1.99998 7.63681 2.02167 7.53847 2.06356 7.44818L0.249351 6.60638C0.0850023 6.96057 -9.33409e-05 7.34636 5.96046e-08 7.73683L2 7.73635ZM2 15.3157V7.73659H5.96046e-08V15.3157H2ZM2.20041 15.7996C2.07209 15.6713 2 15.4972 2 15.3157H5.96046e-08C5.96046e-08 16.0277 0.282805 16.7104 0.786201 17.2138L2.20041 15.7996ZM2.68426 16C2.50278 16 2.32874 15.9279 2.20041 15.7996L0.7862 17.2138C1.2896 17.7172 1.97235 18 2.68426 18V16ZM6.05282 16L2.68426 16L2.68425 18L6.05281 18L6.05282 16ZM5.05282 10.263V17H7.05282V10.263H5.05282ZM5.59236 8.96041C5.2469 9.30587 5.05282 9.77442 5.05282 10.263H7.05282C7.05282 10.3049 7.03618 10.345 7.00658 10.3746L5.59236 8.96041ZM6.89494 8.42086C6.40638 8.42086 5.93783 8.61494 5.59236 8.9604L7.00658 10.3746C6.97697 10.4042 6.93681 10.4209 6.89494 10.4209V8.42086ZM10.2635 8.42086H6.89494V10.4209H10.2635V8.42086ZM11.566 8.9604C11.2206 8.61494 10.752 8.42086 10.2635 8.42086V10.4209C10.2216 10.4209 10.1814 10.4042 10.1518 10.3746L11.566 8.9604ZM12.1056 10.263C12.1056 9.77442 11.9115 9.30587 11.566 8.96041L10.1518 10.3746C10.1222 10.345 10.1056 10.3049 10.1056 10.263H12.1056ZM12.1056 17V10.263H10.1056V17H12.1056ZM14.474 16L11.1056 16L11.1056 18L14.4741 18L14.474 16ZM14.9579 15.7996C14.8296 15.9279 14.6555 16 14.4741 16V18C15.186 18 15.8687 17.7172 16.3721 17.2138L14.9579 15.7996ZM15.1583 15.3157C15.1583 15.4972 15.0862 15.6713 14.9579 15.7996L16.3721 17.2138C16.8755 16.7104 17.1583 16.0277 17.1583 15.3157H15.1583ZM15.1583 7.73659V15.3157H17.1583V7.73659H15.1583ZM15.0947 7.44818C15.1366 7.53847 15.1583 7.63681 15.1583 7.73635L17.1583 7.73683C17.1584 7.34636 17.0733 6.96057 16.909 6.60637L15.0947 7.44818ZM14.9157 7.21358C14.9918 7.27783 15.0529 7.35789 15.0947 7.44818L16.909 6.60638C16.7446 6.25218 16.505 5.9381 16.2067 5.68606L14.9157 7.21358ZM9.01561 2.1572L14.9105 7.20913L16.212 5.69051L10.3171 0.638578L9.01561 2.1572ZM8.57915 2C8.74086 2 8.89734 2.05727 9.02084 2.16165L10.3118 0.634128C9.82735 0.224657 9.2135 0 8.57915 0V2ZM8.13747 2.16165C8.26097 2.05727 8.41745 2 8.57915 2V0C7.94481 0 7.33096 0.224657 6.84647 0.634128L8.13747 2.16165ZM2.2478 7.20913L8.1427 2.1572L6.84124 0.638578L0.94634 5.69051L2.2478 7.20913ZM2.06356 7.44818C2.10546 7.35789 2.16655 7.27783 2.24257 7.21358L0.951569 5.68606C0.653345 5.9381 0.4137 6.25218 0.249351 6.60637L2.06356 7.44818Z" fill="#00BAB3"/>
</svg>
