<svg width="32" height="32" viewBox="0 0 32 32" fill="none" xmlns="http://www.w3.org/2000/svg">
<path fill-rule="evenodd" clip-rule="evenodd" d="M6.69557 13.5341C6.56667 13.8119 6.49993 14.1145 6.5 14.4207V23.8947C6.5 24.453 6.72181 24.9885 7.11663 25.3834C7.51146 25.7782 8.04696 26 8.60532 26H12.816V17.5787C12.816 17.2996 12.9269 17.0318 13.1243 16.8344C13.3217 16.637 13.5895 16.5261 13.8687 16.5261H18.0793C18.3585 16.5261 18.6263 16.637 18.8237 16.8344C19.0211 17.0318 19.132 17.2996 19.132 17.5787V26H23.3426C23.9009 26 24.4364 25.7782 24.8313 25.3834C25.2261 24.9885 25.4479 24.453 25.4479 23.8947V14.4207C25.448 14.1145 25.3812 13.8119 25.2523 13.5341C25.1234 13.2563 24.9355 13.01 24.7016 12.8123L17.3329 6.49736C16.9529 6.1762 16.4715 6 15.9739 6C15.4764 6 14.995 6.1762 14.615 6.49736L7.24634 12.8123C7.01243 13.01 6.82447 13.2563 6.69557 13.5341Z" fill="#00BAB3"/>
<path d="M6.5 14.4207H7.5V14.4205L6.5 14.4207ZM6.69557 13.5341L7.60268 13.955L6.69557 13.5341ZM7.11663 25.3834L7.82374 24.6763L7.82374 24.6763L7.11663 25.3834ZM12.816 26V27C13.3683 27 13.816 26.5523 13.816 26H12.816ZM13.1243 16.8344L12.4172 16.1273L12.4172 16.1273L13.1243 16.8344ZM19.132 26H18.132C18.132 26.5523 18.5797 27 19.132 27V26ZM24.8313 25.3834L24.1241 24.6763L24.1241 24.6763L24.8313 25.3834ZM25.4479 14.4207L24.4479 14.4205V14.4207H25.4479ZM24.7016 12.8123L24.0508 13.5716L24.0561 13.576L24.7016 12.8123ZM17.3329 6.49736L17.9837 5.73803L17.9784 5.7336L17.3329 6.49736ZM14.615 6.49736L13.9694 5.73358L13.9642 5.73805L14.615 6.49736ZM7.24634 12.8123L7.89185 13.576L7.89707 13.5716L7.24634 12.8123ZM7.5 14.4205C7.49996 14.2597 7.535 14.1009 7.60268 13.955L5.78847 13.1132C5.59834 13.523 5.49989 13.9693 5.5 14.421L7.5 14.4205ZM7.5 23.8947V14.4207H5.5V23.8947H7.5ZM7.82374 24.6763C7.61645 24.469 7.5 24.1878 7.5 23.8947H5.5C5.5 24.7183 5.82717 25.5081 6.40953 26.0905L7.82374 24.6763ZM8.60532 25C8.31217 25 8.03103 24.8835 7.82374 24.6763L6.40953 26.0905C6.99189 26.6728 7.78174 27 8.60532 27V25ZM12.816 25H8.60532V27H12.816V25ZM11.816 17.5787V26H13.816V17.5787H11.816ZM12.4172 16.1273C12.0323 16.5122 11.816 17.0343 11.816 17.5787H13.816C13.816 17.5648 13.8216 17.5514 13.8314 17.5415L12.4172 16.1273ZM13.8687 15.5261C13.3243 15.5261 12.8022 15.7423 12.4172 16.1273L13.8314 17.5415C13.8413 17.5316 13.8547 17.5261 13.8687 17.5261V15.5261ZM18.0793 15.5261H13.8687V17.5261H18.0793V15.5261ZM19.5308 16.1273C19.1458 15.7423 18.6237 15.5261 18.0793 15.5261V17.5261C18.0933 17.5261 18.1067 17.5316 18.1166 17.5415L19.5308 16.1273ZM20.132 17.5787C20.132 17.0343 19.9157 16.5122 19.5308 16.1273L18.1166 17.5415C18.1264 17.5514 18.132 17.5648 18.132 17.5787H20.132ZM20.132 26V17.5787H18.132V26H20.132ZM23.3426 25H19.132V27H23.3426V25ZM24.1241 24.6763C23.9169 24.8835 23.6357 25 23.3426 25V27C24.1661 27 24.956 26.6728 25.5384 26.0905L24.1241 24.6763ZM24.4479 23.8947C24.4479 24.1878 24.3314 24.469 24.1241 24.6763L25.5384 26.0905C26.1207 25.5081 26.4479 24.7183 26.4479 23.8947H24.4479ZM24.4479 14.4207V23.8947H26.4479V14.4207H24.4479ZM24.3452 13.955C24.4129 14.1008 24.4479 14.2597 24.4479 14.4205L26.4479 14.421C26.448 13.9693 26.3496 13.523 26.1594 13.1132L24.3452 13.955ZM24.0561 13.576C24.1789 13.6798 24.2775 13.8091 24.3452 13.955L26.1594 13.1132C25.9693 12.7034 25.6921 12.3401 25.3471 12.0485L24.0561 13.576ZM16.6822 7.25667L24.0508 13.5716L25.3523 12.053L17.9837 5.73805L16.6822 7.25667ZM15.9739 7C16.2352 7 16.4879 7.09251 16.6874 7.26112L17.9784 5.7336C17.4179 5.2599 16.7078 5 15.9739 5V7ZM15.2605 7.26112C15.46 7.09251 15.7127 7 15.9739 7V5C15.2401 5 14.5299 5.2599 13.9695 5.7336L15.2605 7.26112ZM7.89707 13.5716L15.2657 7.25667L13.9642 5.73805L6.59561 12.053L7.89707 13.5716ZM7.60268 13.955C7.67035 13.8091 7.76903 13.6798 7.89184 13.576L6.60084 12.0485C6.25583 12.3401 5.97859 12.7034 5.78847 13.1132L7.60268 13.955Z" fill="#00BAB3"/>
</svg>
