<svg width="24" height="24" viewBox="0 0 24 24" fill="none" xmlns="http://www.w3.org/2000/svg">
<path d="M12.3 3C11.5839 3 10.8971 3.28446 10.3908 3.79081C9.88444 4.29716 9.59998 4.98392 9.59998 5.7V12C9.59998 12.7161 9.88444 13.4028 10.3908 13.9092C10.8971 14.4155 11.5839 14.7 12.3 14.7C13.0161 14.7 13.7028 14.4155 14.2092 13.9092C14.7155 13.4028 15 12.7161 15 12V5.7C15 4.98392 14.7155 4.29716 14.2092 3.79081C13.7028 3.28446 13.0161 3 12.3 3Z" stroke="#00BAB3" stroke-width="2" stroke-linecap="round" stroke-linejoin="round"/>
<path d="M18.6 10.2V12C18.6 13.6709 17.9363 15.2733 16.7548 16.4548C15.5733 17.6362 13.9709 18.3 12.3 18.3C10.6291 18.3 9.02671 17.6362 7.84523 16.4548C6.66375 15.2733 6 13.6709 6 12V10.2" stroke="#00BAB3" stroke-width="2" stroke-linecap="round" stroke-linejoin="round"/>
<path d="M12.3 18.3V21" stroke="#00BAB3" stroke-width="2" stroke-linecap="round" stroke-linejoin="round"/>
</svg>
