<svg width="32" height="32" viewBox="0 0 32 32" fill="none" xmlns="http://www.w3.org/2000/svg">
<path d="M11.9649 26C12.5186 26 12.9674 25.5512 12.9674 24.9975C12.9674 24.4438 12.5186 23.995 11.9649 23.995C11.4112 23.995 10.9624 24.4438 10.9624 24.9975C10.9624 25.5512 11.4112 26 11.9649 26Z" stroke="#9C9CA3" stroke-width="2" stroke-linecap="round" stroke-linejoin="round"/>
<path d="M22.9925 26C23.5462 26 23.995 25.5512 23.995 24.9975C23.995 24.4438 23.5462 23.995 22.9925 23.995C22.4388 23.995 21.99 24.4438 21.99 24.9975C21.99 25.5512 22.4388 26 22.9925 26Z" stroke="#9C9CA3" stroke-width="2" stroke-linecap="round" stroke-linejoin="round"/>
<path d="M6 6H8.00501L10.6817 18.401C10.7795 18.857 11.0333 19.2646 11.3992 19.5537C11.7652 19.8429 12.2205 19.9953 12.6867 19.985H21.99" stroke="#9C9CA3" stroke-width="2" stroke-linecap="round" stroke-linejoin="round"/>
<path d="M17.7293 15.4737L13.9699 11.7143L17.7293 7.9549" stroke="#9C9CA3" stroke-width="2" stroke-linecap="round" stroke-linejoin="round"/>
<path d="M13.9699 11.7143H21.8647C22.9614 11.7143 24.0133 12.15 24.7888 12.9255C25.5643 13.701 26 14.7529 26 15.8496C26 16.3927 25.893 16.9304 25.6852 17.4322C25.4774 17.9339 25.1728 18.3898 24.7888 18.7738C24.0133 19.5493 22.9614 19.985 21.8647 19.985H19.2331" stroke="#9C9CA3" stroke-width="2" stroke-linecap="round" stroke-linejoin="round"/>
</svg>
