<svg width="16" height="16" viewBox="0 0 16 16" fill="none" xmlns="http://www.w3.org/2000/svg">
<rect width="16" height="16" rx="4" fill="#F08E30"/>
<path d="M8.29429 3.29307C8.10675 3.10548 7.85238 3.00006 7.58712 3H4.00024C3.73496 3 3.48055 3.10538 3.29296 3.29296C3.10538 3.48055 3 3.73496 3 4.00024V7.58712C3.00006 7.85238 3.10548 8.10675 3.29307 8.29429L7.64613 12.6473C7.87344 12.8732 8.18088 13 8.50134 13C8.82179 13 9.12923 12.8732 9.35655 12.6473L12.6473 9.35655C12.8732 9.12923 13 8.82179 13 8.50134C13 8.18088 12.8732 7.87344 12.6473 7.64613L8.29429 3.29307Z" fill="white"/>
<path d="M5.5 6C5.77614 6 6 5.77614 6 5.5C6 5.22386 5.77614 5 5.5 5C5.22386 5 5 5.22386 5 5.5C5 5.77614 5.22386 6 5.5 6Z" fill="#F08E30"/>
</svg>
