<svg width="14" height="15" viewBox="0 0 14 15" fill="none" xmlns="http://www.w3.org/2000/svg">
<rect y="0.5" width="14" height="14" rx="7" fill="#F08E30"/>
<path d="M6.99613 3.62367C7.01451 3.58653 7.04291 3.55527 7.07811 3.53341C7.11332 3.51155 7.15393 3.49997 7.19537 3.49997C7.23681 3.49997 7.27742 3.51155 7.31263 3.53341C7.34784 3.55527 7.37623 3.58653 7.39462 3.62367L8.36357 5.58633C8.4274 5.71551 8.52163 5.82727 8.63816 5.91202C8.75469 5.99677 8.89005 6.05198 9.03261 6.0729L11.1996 6.39002C11.2406 6.39596 11.2792 6.41328 11.3109 6.44001C11.3426 6.46675 11.3663 6.50182 11.3791 6.54128C11.3919 6.58073 11.3935 6.62299 11.3835 6.66327C11.3736 6.70355 11.3526 6.74025 11.3229 6.76921L9.75576 8.29521C9.65242 8.39592 9.57509 8.52024 9.53044 8.65747C9.4858 8.79469 9.47517 8.94071 9.49947 9.08296L9.86944 11.239C9.87669 11.28 9.87225 11.3223 9.85664 11.3609C9.84104 11.3996 9.81488 11.433 9.78116 11.4575C9.74744 11.482 9.70752 11.4965 9.66594 11.4994C9.62437 11.5023 9.58282 11.4935 9.54603 11.4739L7.60896 10.4554C7.48133 10.3884 7.33932 10.3534 7.19516 10.3534C7.051 10.3534 6.909 10.3884 6.78136 10.4554L4.84471 11.4739C4.80793 11.4934 4.76644 11.5021 4.72493 11.4992C4.68343 11.4962 4.64358 11.4817 4.60993 11.4572C4.57628 11.4327 4.55018 11.3993 4.53458 11.3607C4.51899 11.3222 4.51453 11.28 4.52172 11.239L4.89127 9.08338C4.91568 8.94107 4.9051 8.79496 4.86045 8.65764C4.8158 8.52033 4.73842 8.39595 4.63498 8.29521L3.06787 6.76963C3.03792 6.7407 3.01669 6.70394 3.00661 6.66354C2.99653 6.62313 2.998 6.58071 3.01086 6.5411C3.02371 6.50149 3.04743 6.46629 3.07931 6.4395C3.11119 6.41272 3.14996 6.39543 3.19119 6.3896L5.35771 6.0729C5.50043 6.05214 5.63598 5.997 5.75267 5.91224C5.86936 5.82748 5.96371 5.71563 6.02759 5.58633L6.99613 3.62367Z" fill="white"/>
</svg>
