<svg width="32" height="32" viewBox="0 0 32 32" fill="none" xmlns="http://www.w3.org/2000/svg">
<path d="M8.6 4L5 8.8V25.6C5 26.2365 5.25286 26.847 5.70294 27.2971C6.15303 27.7471 6.76348 28 7.4 28H24.2C24.8365 28 25.447 27.7471 25.8971 27.2971C26.3471 26.847 26.6 26.2365 26.6 25.6V8.8L23 4H8.6Z" stroke="white" stroke-width="2" stroke-linecap="round" stroke-linejoin="round"/>
<path d="M5 8.79999H26.6" stroke="white" stroke-width="2" stroke-linecap="round" stroke-linejoin="round"/>
<path d="M20.6 13.6C20.6 14.873 20.0943 16.0939 19.1941 16.9941C18.2939 17.8943 17.073 18.4 15.8 18.4C14.527 18.4 13.3061 17.8943 12.4059 16.9941C11.5057 16.0939 11 14.873 11 13.6" stroke="white" stroke-width="2" stroke-linecap="round" stroke-linejoin="round"/>
</svg>
